<svg fill="#1cafd4" version="1.1" id="Layer_1" xmlns="http://www.w3.org/2000/svg" xmlns:xlink="http://www.w3.org/1999/xlink" viewBox="0 0 504.45 504.45" xml:space="preserve" width="256px" height="256px" stroke="#1cafd4" stroke-width="0.005044460000000001" transform="rotate(0)matrix(1, 0, 0, 1, 0, 0)"><g id="SVGRepo_bgCarrier" stroke-width="0"></g><g id="SVGRepo_tracerCarrier" stroke-linecap="round" stroke-linejoin="round" stroke="#CCCCCC" stroke-width="5.044460000000001"></g><g id="SVGRepo_iconCarrier"> <g> <g> <circle cx="100.721" cy="227.043" r="16.787"></circle> </g> </g> <g> <g> <circle cx="402.885" cy="227.043" r="16.787"></circle> </g> </g> <g> <g> <rect x="134.295" y="50.78" width="109.115" height="33.574"></rect> </g> </g> <g> <g> <path d="M386.938,75.121L371.829,50.78H260.197v33.574h133.456C391.134,81.836,388.616,78.479,386.938,75.121z"></path> </g> </g> <g> <g> <path d="M496.052,268.17h-51.2c9.233-9.233,15.108-20.144,16.787-33.574h8.393c18.466,0,33.574-15.108,33.574-33.574v-33.574 h-41.967c-5.036,0-8.393-3.357-8.393-8.393s3.357-7.554,8.393-7.554h41.967v-20.984c0-11.751-9.233-20.984-20.984-20.984H448.21 c-11.751,0-23.502-3.357-33.574-8.393h-282.02c-8.393,0-15.108-6.715-15.108-15.108V49.102c0-8.393,6.715-15.108,15.108-15.108 h228.302l-3.357-5.875C346.649,11.331,328.184,0.42,308.039,0.42H136.813c-20.144,0-39.449,10.911-49.521,27.698L45.325,96.105 c-5.036,8.393-14.269,13.43-24.341,13.43c-5.875,0-10.911,2.518-15.108,5.875C2.518,119.607,0,125.482,0,130.518v20.984h41.967 c5.036,0,8.393,3.357,8.393,8.393s-3.357,8.393-8.393,8.393H0v37.771c0,15.948,13.43,29.377,29.377,29.377h13.43 c1.679,13.43,8.393,24.341,16.787,33.574h-51.2c-5.036,0-8.393,3.357-8.393,8.393v33.574v0.839c0,0.839,0,0.839,0,1.679 s0,0.839,0.839,1.679c0,0.839,0.839,0.839,0.839,1.679c0,0.839,0.839,0.839,0.839,0.839l0.839,0.839 c0.839,0,0.839,0.839,1.679,0.839c0,0,0,0,0.839,0l208.157,50.361L57.075,403.305c-4.197,0.839-6.715,4.197-6.715,8.393 s2.518,7.554,6.715,8.393l151.082,32.734L6.715,487.239C2.518,488.079,0,492.275,0,496.472s4.197,7.554,8.393,7.554h486.82 c4.197,0,8.393-3.357,8.393-7.554s-2.518-8.393-6.715-9.233l-200.603-34.413l151.082-32.734c4.197-0.839,6.715-4.197,6.715-8.393 s-2.518-7.554-6.715-8.393l-156.957-34.413l208.157-50.361c0,0,0,0,0.839,0c0.839,0,0.839-0.839,1.679-0.839 s0.839-0.839,0.839-0.839c0.839,0,0.839-0.839,0.839-0.839s0.839-0.839,0.839-1.679s0-0.839,0.839-1.679c0-0.839,0-0.839,0-1.679 v-0.839v-33.574C504.446,271.528,501.088,268.17,496.052,268.17z M402.885,185.075c23.502,0,41.967,18.466,41.967,41.967 c0,23.502-18.466,41.967-41.967,41.967s-41.967-18.466-41.967-41.967C360.918,203.541,379.384,185.075,402.885,185.075z M251.803,126.321h41.967c5.036,0,8.393,3.357,8.393,8.393v16.787c0,5.036-3.357,8.393-8.393,8.393s-8.393-3.357-8.393-8.393 v-8.393h-33.574c-5.036,0-8.393-3.357-8.393-8.393S246.767,126.321,251.803,126.321z M344.97,235.436 c1.679,13.43,8.393,24.341,16.787,33.574H141.849c9.233-9.233,15.108-20.144,16.787-33.574H344.97z M58.754,227.043 c0-23.502,18.466-41.967,41.967-41.967s41.967,18.466,41.967,41.967c0,23.502-18.466,41.967-41.967,41.967 S58.754,250.544,58.754,227.043z M397.01,487.239H106.597l145.207-25.18L397.01,487.239z M405.403,411.698l-153.6,33.574 l-153.6-33.574l153.6-33.574L405.403,411.698z M251.803,361.338L78.898,319.37h345.81L251.803,361.338z M486.82,302.584H16.787 v-16.787H486.82V302.584z"></path> </g> </g> </g></svg>